M48
;Layer_Color=9474304
;FILE_FORMAT=4:4
METRIC,LZ
;TYPE=PLATED
T01F00S00C0.3000
T02F00S00C0.8000
T03F00S00C1.2000
%
T01
X00087731Y00112226
X0009144Y00122428
X00102357Y00126512
X00141224Y00133604
X00178562Y001397
X00195321Y00036716
X00194056Y00027432
X00285496Y00113538
X00330454Y0013208
X00347726Y00101854
X00356616
X0036576Y001016
X00374396Y00064262
X00374142Y00056642
X00418338Y00052324
X00417576Y00080772
X00463804Y00080264
X00462788Y00071374
X00464312Y00063246
X00488696Y00113792
X00621284Y0011684
X00631698
X006223Y00127508
X00629158Y00138684
X00664972Y00137414
Y00129286
Y00121158
Y00112776
X00656336
X00649732Y00102616
X00641858
X0067945Y00110236
X00688848
X00697992Y00109982
X0070739
X00705612Y00081026
X00695706
X00685292Y00080518
X00672084Y00070866
X0067183Y00059182
X0067945Y0004572
X0069088Y00045212
X0070231
X00630682Y00048514
X00620522Y00057912
X00617152Y00073367
X00630428Y00067818
X00583438Y00072136
X00629666Y0014859
X00638048Y00155702
X00639064Y0016764
X00635762Y00177292
X0062357Y00178054
X00577596Y00213106
X00577088Y0022098
X00574548Y00229108
X00565912Y0022987
X00548386Y00223266
X00540004Y0022098
X00546354Y00171958
X00672846Y00144018
X00681228Y00144272
X0068961Y00144526
X00697992
X00706628
X00537972Y00172974
X00531114Y00176784
Y00185166
X0053086Y0020828
X00532892Y00216408
X00517652Y00221234
X00508254Y00222758
X00502412Y00191008
Y00183388
X00476504Y0018034
X0047625Y00163322
X0044069Y00187452
X00356381Y00186944
X00355854Y00171196
X00302768Y00169926
X00308864Y0021717
X00308102Y00225806
X00272034Y0023241
X0025146Y00187452
X00249428Y0017399
X00247904Y00160528
X00198925Y00155849
X00189992Y0015621
X001781Y00150586
X00165862Y00155448
X00155194Y00155194
X00144526Y001524
X00150876Y00206502
X00142005Y00204761
X00138267Y00177624
X0013843Y00162052
X00141598Y00143377
T02
X00558009Y00174078
Y00217082
T03
X0010414Y00061359
Y0008636
Y00111362
M30
